{
  "asset": {
    "extras": {
      "author": "andre.arancibia (https://sketchfab.com/andre.arancibia)",
      "license": "CC-BY-4.0 (http://creativecommons.org/licenses/by/4.0/)",
      "source": "https://sketchfab.com/3d-models/d-letter-269aa6fa8b73433db54e3722ada02d0a",
      "title": "D Letter"
    },
    "generator": "gltfeditor.com",
    "version": "2.0"
  },
  "buffers": [
    {
      "uri": "data:application/octet-stream;base64,",
      "byteLength": 96288
    }
  ],
  "bufferViews": [
    {
      "buffer": 0,
      "byteOffset": 0,
      "byteLength": 34560,
      "byteStride": 24,
      "target": 34962
    },
    {
      "buffer": 0,
      "byteOffset": 34560,
      "byteLength": 34560,
      "byteStride": 24,
      "target": 34962
    },
    {
      "buffer": 0,
      "byteOffset": 69120,
      "byteLength": 27168,
      "target": 34963
    }
  ],
  "accessors": [
    {
      "bufferView": 0,
      "byteOffset": 0,
      "componentType": 5126,
      "normalized": false,
      "count": 1440,
      "min": [
        -0.9999486207962036,
        -0.9999938607215881,
        -1
      ],
      "max": [
        0.9999973773956299,
        0.999999463558197,
        1
      ],
      "type": "VEC3"
    },
    {
      "bufferView": 0,
      "byteOffset": 12,
      "componentType": 5126,
      "normalized": false,
      "count": 1440,
      "min": [
        -3.6938929557800293,
        0.0006752461194992065,
        -1.5808765888214111
      ],
      "max": [
        3.6938934326171875,
        8.03530216217041,
        1.5808765888214111
      ],
      "type": "VEC3"
    },
    {
      "bufferView": 1,
      "byteOffset": 0,
      "componentType": 5126,
      "normalized": false,
      "count": 1440,
      "min": [
        0.0011429190635681152,
        0.0010982751846313477
      ],
      "max": [
        0.824592113494873,
        0.7345722913742065
      ],
      "type": "VEC2"
    },
    {
      "bufferView": 1,
      "byteOffset": 8,
      "componentType": 5126,
      "normalized": false,
      "count": 1440,
      "min": [
        0.0011429190635681152,
        0.0010982751846313477
      ],
      "max": [
        0.824592113494873,
        0.7345722913742065
      ],
      "type": "VEC2"
    },
    {
      "bufferView": 1,
      "byteOffset": 16,
      "componentType": 5126,
      "normalized": false,
      "count": 1440,
      "min": [
        0.0011429190635681152,
        0.0010982751846313477
      ],
      "max": [
        0.824592113494873,
        0.7345722913742065
      ],
      "type": "VEC2"
    },
    {
      "bufferView": 2,
      "byteOffset": 0,
      "componentType": 5125,
      "normalized": false,
      "count": 6792,
      "min": [
        0
      ],
      "max": [
        1439
      ],
      "type": "SCALAR"
    }
  ],
  "scene": 0,
  "scenes": [
    {
      "nodes": [
        5
      ],
      "name": "Sketchfab_Scene"
    }
  ],
  "nodes": [
    {
      "name": "Object_5",
      "mesh": 0
    },
    {
      "name": "node_id42_1",
      "children": [
        0
      ],
      "matrix": [
        0.06372418254613876,
        0,
        0,
        0,
        0,
        0.06372418254613876,
        0,
        0,
        0,
        0,
        0.06372418254613876,
        0,
        -0.09807848930358887,
        -0.14784330129623413,
        0.21027687191963196,
        1
      ]
    },
    {
      "name": "root_0",
      "children": [
        1
      ]
    },
    {
      "name": "GLTF_SceneRootNode",
      "children": [
        2
      ],
      "matrix": [
        1,
        0,
        0,
        0,
        0,
        3.422854177870249e-8,
        0.9999999403953552,
        0,
        0,
        -0.9999999403953552,
        3.422854177870249e-8,
        0,
        0,
        0,
        0,
        1
      ]
    },
    {
      "name": "root",
      "children": [
        3
      ]
    },
    {
      "name": "Sketchfab_model",
      "children": [
        4
      ],
      "matrix": [
        1,
        0,
        0,
        0,
        0,
        3.422854177870249e-8,
        -0.9999999403953552,
        0,
        0,
        0.9999999403953552,
        3.422854177870249e-8,
        0,
        0,
        0,
        0,
        1
      ]
    }
  ],
  "meshes": [
    {
      "primitives": [
        {
          "material": 0,
          "mode": 4,
          "attributes": {
            "NORMAL": 0,
            "POSITION": 1,
            "TEXCOORD_0": 2,
            "TEXCOORD_1": 3,
            "TEXCOORD_2": 4
          },
          "indices": 5
        }
      ]
    }
  ],
  "materials": [
    {
      "pbrMetallicRoughness": {
        "baseColorFactor": [
          1,
          1,
          1,
          1
        ],
        "metallicFactor": 1,
        "roughnessFactor": 1
      },
      "emissiveFactor": [
        0,
        0,
        0
      ],
      "alphaMode": "OPAQUE",
      "doubleSided": true
    }
  ]
}